<svg width="1001" height="1001" viewBox="0 0 1001 1001" fill="none" xmlns="http://www.w3.org/2000/svg">
<path d="M500.773 0.431641C363.88 2.30493 246.405 50.5906 148.348 145.288C52.0024 243.497 2.67332 361.273 0.361023 498.615C1.78785 635.998 50.1875 754.058 145.56 852.795C244.778 949.416 362.57 998.631 498.935 1000.44C635.836 998.848 753.425 950.786 851.702 856.252C948.251 758.197 997.804 640.499 1000.36 503.155C999.174 365.776 950.999 247.641 855.837 148.75C756.827 51.9623 639.151 2.5245 502.809 0.435301" fill="#C59A4C"/>
<path d="M754.758 153.766C754.033 153.766 753.411 153.932 752.84 154.263C751.74 154.908 750.933 156.26 749.019 160.858C748.322 162.534 747.473 164.093 747.162 164.3C746.855 164.542 745.373 165.103 743.845 165.565C741.849 166.169 740.861 166.368 739.25 166.368H739.146C738.925 166.366 738.692 166.36 738.444 166.353C738.245 166.349 738.042 166.344 737.837 166.343H737.663C733.563 166.343 728.39 167.1 726.601 167.993C723.585 169.49 721.917 172.032 720.408 177.422C719.95 179.135 719.853 180.496 720.038 183.545C720.159 185.826 720.105 187.788 719.894 188.256C719.684 188.722 718.883 189.598 718.087 190.241C717.262 190.919 716.641 191.605 716.663 191.77C716.688 191.971 715.957 192.604 715.083 193.153C712.859 194.517 712.275 195.233 711.528 197.318C711.176 198.275 710.203 199.917 709.391 200.964C707.527 203.296 705.322 207.187 704.811 209.007C704.489 210.196 703.984 213.127 703.391 217.762C703.306 218.413 703.375 220.295 703.62 221.952C703.873 223.943 703.885 225.63 703.622 227.014C703.428 228.152 703.159 229.74 703.051 230.496C702.753 232.661 702.409 232.871 697.717 233.672C696.937 233.801 696.249 233.908 695.61 233.991C694.146 234.183 692.929 234.265 691.421 234.265C691.334 234.265 691.247 234.263 691.158 234.263C690.549 234.261 689.89 234.245 689.146 234.219C688.506 234.192 687.838 234.178 687.148 234.174C687.032 234.174 686.916 234.173 686.799 234.173C681.687 234.173 675.488 234.768 671.269 235.581C669.349 235.952 667.838 236.368 667.026 236.796C666.778 236.96 666.283 237.059 665.981 237.064C665.644 237.071 664.968 237.865 664.306 239.031C663.595 240.335 662.708 241.327 661.774 241.952C658.813 243.88 657.222 245.973 652.409 254.314C652.102 254.824 651.706 255.956 651.508 256.792C650.723 260.165 649.947 264.416 650.017 264.981C650.171 266.176 649.257 272.807 648.7 274.532C648.381 275.484 648.04 277.045 647.927 278.006C647.616 280.881 646.678 283.328 645.587 284.041C645.06 284.41 643.641 284.929 642.458 285.182C639.626 285.743 638.825 286.35 637.532 288.913C636.936 290.068 636.18 291.277 635.818 291.628C634.82 292.531 633.926 294.535 631.696 300.895C629.888 306.054 629.608 307.304 629.414 310.299C629.319 312.201 629.146 314.822 629.003 316.089C628.621 320.257 628.808 324.114 629.985 335.778C630.621 342.11 631.385 349.98 631.675 353.318C632.172 358.826 632.273 359.352 632.796 359.488C633.146 359.578 633.341 359.789 633.229 359.972C633.15 360.151 633.75 362.472 634.556 365.103C635.764 369.033 636.243 370.153 637.202 371.316C637.876 372.107 638.431 373.016 638.477 373.381C638.5 373.693 638.509 373.842 638.459 373.842C638.411 373.842 638.31 373.713 638.116 373.462C637.87 373.153 637.668 373.001 637.537 372.973H637.462C637.313 373.012 637.358 373.344 637.726 373.847C638.027 374.348 638.326 374.853 638.351 375.051C638.575 376.542 639.717 378.083 642.129 380.073C643.582 381.316 644.961 382.242 645.228 382.244C645.232 382.244 645.236 382.243 645.24 382.243C645.281 382.231 645.32 382.228 645.354 382.228C645.565 382.23 645.644 382.423 645.548 382.811C645.501 383.161 645.508 383.316 645.603 383.316H645.605C645.651 383.316 645.715 383.282 645.803 383.216C645.885 383.145 645.949 383.101 645.996 383.081H646.072C646.096 383.111 646.079 383.195 646.019 383.325C645.882 383.579 646.108 384.023 646.449 384.317C646.827 384.641 647.065 385.184 647.016 385.596C646.966 385.956 647.059 386.239 647.243 386.24H647.301C648.093 386.41 647.948 396.328 647.032 404.834C646.926 405.861 646.764 407.771 646.729 409.092C646.658 410.385 646.417 413.013 646.184 414.9C645.952 416.786 645.799 419.303 645.88 420.475L646.018 422.616L648.692 424.537C650.964 426.208 651.645 426.526 653.461 426.736C654.396 426.859 655.673 426.938 656.593 426.944H656.677C656.871 426.944 657.047 426.94 657.198 426.933C657.282 426.931 657.365 426.93 657.446 426.93H657.5C659.2 426.938 660.219 427.598 660.367 428.759C660.486 429.69 660.218 432.896 659.788 435.887C659.516 437.637 660.005 439.549 660.679 439.552C660.694 439.552 660.71 439.551 660.727 439.548C660.731 439.548 660.736 439.547 660.741 439.547C660.925 439.548 661.496 439.907 662.081 440.389C662.622 440.837 663.308 441.205 663.599 441.205C663.613 441.205 663.625 441.204 663.637 441.203C663.642 441.203 663.647 441.202 663.652 441.202C663.658 441.202 663.664 441.203 663.67 441.203C664.295 441.205 666.805 443.158 667.863 444.447C668.546 445.306 669.074 447.602 668.575 447.666C668.111 447.725 669.185 451.131 669.905 452.02C670.264 452.446 671.635 453.148 672.94 453.59C675.376 454.429 676.524 455.229 676.676 456.155C676.714 456.455 676.885 456.736 677.025 456.785C677.653 456.941 679.039 458.825 679.141 459.621C679.199 460.087 679.643 461.178 680.126 462.063C680.61 462.945 681.04 463.939 681.082 464.269C681.183 465.066 680.267 466.094 678.948 466.598C678.371 466.842 677.474 467.225 676.931 467.463C673.08 469.303 672.304 469.57 669.837 469.817C666.445 470.214 663.545 471.291 659.977 473.499C656.596 475.583 653.779 477.055 648.094 479.6C644.58 481.161 640.902 484.092 640.394 485.675C638.771 490.707 638.628 491.436 637.29 501.091C636.95 503.734 636.532 506.283 636.425 506.769C636.285 507.259 636.181 507.779 636.14 507.987C636.128 508.157 635.879 510.18 635.56 512.448C635.274 514.714 634.878 518.241 634.705 520.323C634.526 522.37 634.205 526.226 633.933 528.859C633.693 531.488 633.404 534.8 633.312 536.194C633.219 537.591 633.06 538.995 632.994 539.273C632.862 539.829 632.864 540.369 633.009 542.31C633.032 542.888 633 543.188 632.884 543.188H632.883C632.845 543.188 632.796 543.154 632.736 543.086C632.724 543.071 632.713 543.059 632.703 543.05H632.626C632.569 543.157 632.631 543.645 632.802 544.394C633.024 545.42 633.044 545.957 632.853 545.959H632.851C632.835 545.959 632.817 545.954 632.797 545.947C632.762 545.926 632.725 545.917 632.687 545.917H632.686C632.525 545.917 632.351 546.098 632.274 546.352C632.216 546.698 632.32 546.987 632.495 547.032C633.048 547.132 633.045 547.908 632.54 548.445C632.049 548.967 632.084 550.122 632.574 550.125C632.588 550.125 632.602 550.124 632.618 550.122C632.628 550.122 632.638 550.12 632.648 550.12C632.794 550.12 632.867 550.271 632.794 550.437C632.704 550.615 632.558 550.711 632.431 550.711C632.404 550.711 632.377 550.705 632.353 550.696C632.339 550.689 632.326 550.684 632.312 550.684C632.191 550.684 632.123 551.01 632.18 551.461C632.244 551.959 631.964 553.48 631.564 554.847C630.851 557.199 630.847 557.437 631.404 559.424C631.75 560.561 632.403 562.503 632.862 563.727C633.481 565.404 633.722 566.791 633.912 569.334C634.011 571.177 634.402 573.725 634.766 574.997C636.331 580.671 637.765 585.314 638.203 586.104C638.861 587.301 639.326 591.225 639.137 593.716C639.047 594.873 639.24 597.716 639.632 600.537C639.887 602.208 640.179 604.282 640.427 606.04H640.407C638.337 607.72 636.726 609.698 635.571 611.973C632.903 617.158 632.841 624.697 635.385 634.589C637.883 644.511 643.14 657.44 651.156 673.376C656.004 683.166 663.532 696.955 673.741 714.742H673.719L673.96 716.843C674.202 718.574 673.872 719.903 672.971 720.829C668.05 725.104 663.627 727.712 659.702 728.653C659.808 728.909 657.887 729.067 653.939 729.124H653.961L653.65 733.672L635.387 732.949C632.985 732.853 630.784 732.799 628.779 732.789C628.521 732.787 628.266 732.787 628.014 732.787C620.26 732.787 615.621 733.461 613.997 734.909C612.33 736.143 605.264 737.559 598.203 738.143C596.532 738.211 595.038 738.258 593.658 738.258C593.56 738.258 593.462 738.257 593.365 738.257C583.821 738.204 579.813 735.743 561.343 721.958C557.415 718.824 549.963 715.254 544.782 713.565C539.6 712.083 534.217 709.771 532.976 708.727C532.073 708.073 529.707 707.736 526.893 707.72C526.822 707.72 526.75 707.719 526.678 707.719C525.05 707.719 523.28 707.826 521.564 708.041C516.577 708.844 506.194 709.827 498.095 710.404C484.389 711.575 476.275 715.059 476.248 720.041C476.242 721.078 473.521 725.216 469.97 729.14C466.629 732.859 463.696 737.825 463.685 739.9C463.654 745.664 460.505 747.884 450.395 747.884C450.266 747.884 450.135 747.884 450.003 747.883C447.458 747.869 444.482 747.72 441.018 747.457C431.681 746.784 416.535 745.456 407.198 744.782C397.653 744.109 388.944 742.608 387.703 741.562C387.263 741.18 386.763 740.992 386.211 740.989H386.198C384.94 740.989 383.408 741.952 381.671 743.812C379.406 746.333 377.061 747.623 373.988 747.623H373.932C370.214 747.602 365.429 745.704 358.435 741.817C352.487 738.459 349.763 736.955 347.672 736.944H347.647C345.966 736.944 344.69 737.913 342.462 739.655C339.202 742.188 337.05 743.368 334.849 743.368H334.815C333.086 743.359 331.321 742.621 328.961 741.243C327.678 740.378 326.556 739.875 325.305 739.868H325.28C322.302 739.868 318.584 742.672 310.231 750.066C303.138 756.67 301.671 759.152 301.635 765.795C301.601 772.021 303.038 775.143 308.405 780.362L315.219 787.041L421.702 787.622C434.568 787.719 445.924 787.797 455.951 787.853C466.477 787.909 475.539 787.94 483.351 787.94C522.008 787.94 530.046 787.182 533.183 785.116C539.224 781.205 539.451 777.678 534.081 772.667C531.81 770.578 529.955 768.076 529.961 767.039C529.968 765.808 530.638 765.227 531.779 765.227H531.796C534.311 765.242 539.085 768.057 544.044 772.928C552.716 781.278 560.582 785.472 572.196 787.196C577.3 787.905 580.416 789.162 581.878 791.275C590.816 790.562 598.751 790.206 605.682 790.206C606.042 790.206 606.4 790.207 606.756 790.209C606.952 790.21 607.146 790.211 607.34 790.214L607.379 790.215C618.361 790.315 626.172 791.407 630.813 793.492C635.196 795.494 636.906 798.697 635.943 803.102C634.243 809.324 629.241 815.354 620.937 821.193C620.566 821.444 620.194 821.69 619.819 821.929H619.84C620.382 824.481 607.552 832.198 602.903 832.198H602.872C600.996 832.198 595.589 835.694 590.591 839.813C571.633 856.092 565.165 861.046 563.496 861.046H563.489C562.446 861.046 558.699 863.929 554.946 867.226C549.126 872.612 548.038 873.317 531.994 873.317C530.211 873.317 528.242 873.308 526.06 873.296C525.567 873.294 525.073 873.293 524.578 873.293C512.791 873.293 500.798 874.038 497.405 875.216C493.87 876.234 477.039 879.463 459.795 882.275C402.037 891.924 385.41 895.571 373.546 901.526C364.387 906.249 360.628 910.38 354.749 922.595C350.97 930.462 350.323 934.817 351.09 946.445C352.356 966.054 353.885 971.411 362.39 981.081H362.449C405.664 993.352 451.16 999.805 498.935 1000.44C635.836 998.848 753.425 950.786 851.702 856.252C916.387 790.559 959.977 716.048 982.473 632.718H982.538C981.049 630.345 979.054 628.733 976.591 628.116C975.702 627.868 974.631 627.75 973.427 627.744H973.324C972.413 627.744 971.428 627.805 970.387 627.924H970.412L941.398 641.341H941.423C940.515 641.894 939.726 642.253 939.129 642.377H939.153L936.211 643.739H936.236C934.994 644.832 933.856 645.719 932.823 646.4C932.078 646.783 931.5 646.975 931.09 646.975H931.082C931.002 646.975 930.929 646.967 930.862 646.952C930.497 646.786 930.135 646.613 929.774 646.432H929.696L929.987 647.003L930.669 648.344C929.631 647.303 928.608 646.272 927.601 645.252H927.626C926.2 644.396 924.814 643.417 923.467 642.316H923.491L921.702 641.562C921.371 641.422 920.991 641.24 920.561 641.017C918.519 639.942 917.528 639.401 917.588 639.391H917.593L916.791 638.814H916.767C900.971 579.817 883.728 537.962 865.036 513.247C857.145 503.338 848.823 495.57 840.069 489.943H840.046C839.726 489.465 839.396 488.968 839.054 488.446C837.421 485.956 835.78 483.664 835.364 483.314C834.953 482.996 833.352 480.766 831.764 478.37C830.182 476.005 828.278 473.244 827.478 472.264C826.712 471.282 825.238 468.971 824.191 467.114C823.178 465.251 821.807 462.959 821.181 462.028C820.553 461.061 819.798 459.639 819.464 458.87C819.13 458.102 817.784 456.012 816.481 454.254C815.149 452.534 813.707 450.487 813.278 449.766C812.844 449.011 811.583 447.586 810.471 446.544C808.712 444.912 808.411 444.409 807.78 442.363C807.379 441.064 806.753 439.593 806.378 439.032C805.97 438.476 805.632 437.674 805.577 437.242C805.522 436.811 805.363 436.358 805.214 436.243C804.878 435.982 801.725 427.912 801.899 427.686C801.913 427.667 801.938 427.657 801.969 427.657C802.061 427.657 802.21 427.741 802.331 427.902C802.466 428.083 803.133 428.165 803.959 428.169H804.028C805.436 428.169 807.268 427.952 807.73 427.62C808.442 427.125 808.69 425.608 808.6 422.783C808.519 419.757 808.53 419.047 808.852 417.858C809.185 416.498 808.576 414.618 807.076 412.378C805.705 410.359 804.335 406.753 804.077 404.457C803.972 403.624 804.145 401.543 804.47 399.846C804.79 398.12 804.981 395.902 804.887 394.899C804.748 393.804 804.838 392.915 805.078 392.682C805.318 392.448 805.408 392.101 805.312 391.876C805.188 391.69 805.328 391.469 805.628 391.43C805.926 391.393 806.142 391.23 806.126 391.097C806.105 390.932 807.185 389.342 808.539 387.516C809.898 385.724 810.979 384.134 810.966 384.036C810.952 383.936 811.699 382.895 812.602 381.768C814.761 379.097 816.636 376.058 818.364 372.396C819.142 370.81 820.264 369.016 820.899 368.428C821.74 367.613 822.282 366.565 822.983 364.382C823.482 362.733 824.342 360.733 824.88 359.921C825.418 359.111 826.196 357.529 826.63 356.425C827.969 352.88 829.894 344.13 830.181 340.008C830.294 338.509 830.544 336.756 830.705 336.161C830.861 335.535 831.067 332.907 831.108 330.304C831.182 327.696 831.285 325.319 831.318 325.047C831.453 324.252 831.286 318.164 831.047 314.953C830.309 304.89 830.283 304.417 830.757 302.84C831.042 301.891 831.188 300.118 831.105 298.407L830.95 295.592L832.341 295.111C834.445 294.406 834.767 293.485 833.846 290.497L833.102 288.093L833.933 286.131C834.372 285.063 835.419 283.209 836.242 281.99C840.569 275.669 843.187 270.239 844.949 263.905C845.253 262.854 845.703 261.346 845.942 260.572C846.78 257.866 847.739 253.728 847.906 252.12C848.125 249.865 847.388 244.591 846.465 242.109C845.639 239.853 843.896 232.785 842.88 227.714C842.087 223.596 840.015 217.378 838.271 213.751C836.669 210.447 832.744 204.529 829.968 201.272C826.67 197.37 821.785 192.929 819.844 191.991C818.372 191.303 813.722 187.91 813.667 187.477C813.25 184.728 811.077 178.523 810.391 178.172C810.245 178.089 809.276 176.83 808.25 175.406C805.46 171.601 804.314 170.521 802.187 170.51H802.149C801.766 170.51 801.351 170.546 800.889 170.603C800.77 170.616 800.64 170.626 800.506 170.626H800.482C799.989 170.624 799.446 170.523 799.136 170.353C798.376 169.946 793.781 169.38 790.94 169.337C788.841 169.299 787.711 168.903 785.748 167.532C783.677 166.109 781.995 164.025 781.822 162.665C781.747 162.076 781.557 161.601 781.424 161.601H781.413C781.27 161.6 780.635 160.811 780.01 159.822C777.81 156.321 774.35 154.062 771.03 153.976C770.97 153.975 770.912 153.974 770.855 153.972H770.827C769.899 153.972 769.304 154.218 767.976 155.175C766.636 156.141 765.761 156.643 764.589 156.643H764.563C763.249 156.636 761.559 156.005 758.43 154.701C756.945 154.078 755.773 153.771 754.79 153.766H754.758ZM639.643 376.017C639.721 376.067 639.848 376.232 640.024 376.526C640.324 377.028 640.534 377.609 640.459 377.822C640.429 377.869 640.395 377.894 640.355 377.894C640.247 377.893 640.105 377.709 639.964 377.378C639.636 376.612 639.505 376.116 639.567 376.017H639.643ZM666.012 568.505C666.198 568.565 666.868 568.981 667.554 569.513C669.205 570.821 669.606 571.582 669.171 572.683C668.883 573.473 667.83 574.028 666.941 574.028H666.93C666.589 574.027 666.272 573.942 666.035 573.757C664.891 572.9 664.845 568.735 665.937 568.505H666.012ZM724.142 455.804C725.348 455.81 728.248 457.34 731.065 459.437C735.92 463.107 738.734 466.395 740.995 471.17C743.289 475.942 743.867 478.096 743.297 479.721C742.727 481.346 741.543 482.915 740.411 483.565C739.435 484.127 736.751 487.438 735.297 489.819C734.854 490.582 734.147 492.192 733.731 493.427C733.322 494.727 732.309 496.577 731.327 497.883C729.107 500.866 727.083 504.6 725.944 507.849C725.453 509.294 724.389 511.557 723.579 512.876C722.8 514.191 721.559 516.373 720.855 517.747C720.115 519.089 718.822 520.873 717.948 521.694C717.078 522.546 715.822 524.091 715.152 525.189C714.478 526.253 713.197 528.136 712.274 529.369C711.384 530.593 709.74 533.066 708.621 534.895C707.533 536.689 705.52 539.44 704.228 540.955C702.906 542.506 701.658 544.119 701.514 544.574C701.337 545.034 700.69 545.792 700.081 546.311C699.467 546.791 698.495 548.164 697.939 549.382C696.667 552.111 696.89 551.745 694.467 555.259C692.949 557.464 691.786 559.246 690.89 560.755H690.867L688.536 563.772H688.558C687.829 565.21 686.988 566.583 686.023 567.95L686.045 567.951C685.962 569.041 685.82 569.7 685.618 569.928C685.496 570.171 685.161 570.293 684.614 570.293H684.592C684.496 570.292 684.393 570.288 684.284 570.281H684.262C684.045 570.551 683.824 570.821 683.597 571.094C680.987 574.319 676.054 586.384 671.9 598.913C671.425 598.902 670.954 598.895 670.488 598.891H670.467C670.267 598.189 669.8 596.928 669.302 595.753C668.2 593.194 667.423 590.796 667.054 588.953C666.961 588.492 666.602 587.255 666.229 586.187C665.449 584.026 664.927 578.59 665.386 577.416C665.563 576.955 666.153 576.544 667.032 576.297C669.212 575.649 671.667 573.986 672.087 572.784C672.736 570.981 671.418 568.314 668.917 566.437C668.173 565.891 667.179 564.97 666.738 564.419C665.535 562.918 665.586 560.142 666.869 555.896C667.873 552.63 673.84 539.82 674.404 539.75C674.57 539.728 674.956 539.037 675.295 538.252C676.161 536.051 680.469 527.436 681.015 526.689C681.275 526.354 681.495 525.954 681.482 525.855C681.419 525.357 684.987 519.165 686.772 516.744C687.803 515.296 688.895 513.538 689.243 512.817C689.871 511.387 691.408 509.673 693.083 508.515C693.585 508.179 694.053 508.011 694.492 508.011H694.502C695.256 508.015 695.924 508.518 696.52 509.529C697.513 511.226 699.947 513.382 701.798 514.127C702.557 514.431 703.082 514.573 703.608 514.577H703.618C703.976 514.577 704.334 514.514 704.767 514.39C706.826 513.858 708.331 512.687 708.794 511.278C709.26 509.902 710.542 509.098 712.618 508.969C715.932 508.751 717.098 508.365 717.968 507.243C718.809 506.157 718.946 504.317 718.231 504.003C718.053 503.924 717.739 503.323 717.56 502.705C717.346 502.089 716.755 500.882 716.213 500.074C715.671 499.264 714.796 497.689 714.25 496.577C713.019 494.066 712.441 493.229 710.938 491.765C710.243 491.078 709.827 490.456 709.971 490.269C710.117 490.08 711.789 489.699 713.674 489.393C717.744 488.74 719.013 488.106 720.267 486.022L721.132 484.595L720.32 483.519C719.837 482.904 718.855 482.084 718.128 481.672C717.395 481.224 715.999 480.322 715.034 479.634C714.064 478.914 712.887 478.152 712.454 477.936C710.396 476.881 706.762 474.304 705.487 473.049C704.36 471.877 704.097 471.403 703.962 470.069C703.742 468.072 704.628 466.813 707.379 465.349C708.425 464.813 709.562 464.195 709.909 464.015C710.258 463.836 711.553 463.131 712.756 462.506C715.863 460.929 719.042 459.109 719.207 458.817C719.373 458.527 723.657 455.854 723.989 455.813C724.037 455.808 724.087 455.804 724.142 455.804ZM486.57 737.787C487.936 737.794 488.593 740.084 488.568 744.604C488.541 749.602 486.147 752.58 482.556 752.58H482.521C481.497 752.574 480.377 752.328 479.188 751.818C476.702 750.974 476.917 749.521 480.893 743.731C483.41 739.752 485.292 737.787 486.562 737.787H486.57ZM504.527 748.634C504.596 748.634 504.666 748.636 504.737 748.636C506.813 748.647 509.505 749.699 510.95 751.16C514.454 754.702 514.011 761.12 510.292 761.12H510.274C508.613 761.111 505.93 758.191 504.081 754.858C501.061 749.147 501.201 748.634 504.527 748.634Z" fill="#231725"/>
<path d="M94.6339 792.15C106.796 808.98 120.134 825.326 134.648 841.189H134.704C195.817 841.605 251.832 842.158 253.891 842.545C254.729 842.549 255.216 882.037 255.27 936.123H255.328C267.33 942.954 279.545 949.241 291.973 954.983H291.974C292.664 889.032 293.844 843.716 294.781 842.974C295.417 842.597 317.142 842.413 349.768 842.413C370.524 842.413 395.692 842.488 422.649 842.635C442.302 842.743 460.971 842.794 477.644 842.794C519.788 842.794 549.181 842.465 549.48 841.87C550.109 840.837 554.69 838.37 559.476 836.115C569.463 831.809 571.138 829.121 571.2 817.704C571.234 811.478 569.796 808.562 563.396 802.302L555.55 794.578L226.761 792.786L94.69 792.15H94.6339Z" fill="#231725"/>
<path d="M747.597 329.211C739.298 329.291 732.11 332.232 726.036 338.034C720.137 344.045 717.111 351.249 716.959 359.644C717.075 368.072 720.012 375.271 725.772 381.241C731.737 387.12 738.934 390.148 747.362 390.325C755.663 390.265 762.859 387.34 768.949 381.551C774.862 375.55 777.903 368.353 778.073 359.958C778.003 351.56 775.052 344.325 769.218 338.254C763.24 332.384 756.036 329.37 747.607 329.211" fill="white"/>
<path d="M695.608 233.991C694.062 234.194 692.791 234.273 691.158 234.263C690.549 234.261 689.89 234.245 689.146 234.219C688.507 234.192 687.839 234.178 687.148 234.174C681.971 234.146 675.585 234.75 671.269 235.581L671.345 235.582L734.448 345.738L758.778 339.569L695.685 233.991H695.608Z" fill="white"/>
<path d="M735.14 370.848C732.076 376.059 716.869 395.386 689.518 428.829C688.632 430.373 688.879 431.707 690.258 432.831C691.591 433.603 692.831 433.427 693.976 432.303C717.956 402.939 731.995 385.282 736.092 379.331L739.799 374.058L735.209 370.895" fill="white"/>
<path d="M687.26 425.946C685.322 426.021 683.68 426.743 682.334 428.113C681.016 429.541 680.365 431.21 680.384 433.121C680.45 435.041 681.167 436.68 682.534 438.039C683.959 439.363 685.627 440.018 687.538 440.004C689.476 439.94 691.121 439.225 692.474 437.859C693.799 436.436 694.456 434.768 694.444 432.856C694.376 430.908 693.659 429.26 692.293 427.912C690.868 426.588 689.2 425.932 687.288 425.945" fill="white"/>
<path d="M747.613 349.031C744.66 349.05 742.121 350.075 739.996 352.104C737.917 354.222 736.845 356.736 736.779 359.645C736.789 362.599 737.812 365.146 739.848 367.287C741.934 369.354 744.45 370.427 747.398 370.506C750.351 370.49 752.892 369.471 755.022 367.447C757.106 365.331 758.183 362.818 758.253 359.909C758.247 356.955 757.229 354.408 755.198 352.265C753.117 350.193 750.602 349.115 747.654 349.031" fill="#231725"/>
<path d="M142.854 384.244L141.843 702.864L198.564 702.755L199.591 384.656L142.862 384.245" fill="#231725"/>
<path d="M162.008 690.25L161.423 744.963L161.797 744.998L177.502 745.165L178.097 690.485L162.028 690.251" fill="#231725"/>
<path d="M110.576 735.476L109.998 795.371L227.799 796.633C228.233 796.662 228.417 796.64 228.353 796.566L228.995 736.759L110.757 735.479" fill="#231725"/>
</svg>
